<svg xmlns="http://www.w3.org/2000/svg" width="100" height="100" viewBox="0 0 100 100"><path fill="#e5e5e5" d="M32.5 18.5a7,7 0 1,1 14,0a7,7 0 1,1 -14,0M53.5 18.5a7,7 0 1,1 14,0a7,7 0 1,1 -14,0M53.5 81.5a7,7 0 1,1 14,0a7,7 0 1,1 -14,0M32.5 81.5a7,7 0 1,1 14,0a7,7 0 1,1 -14,0M11.5 39.5a7,7 0 1,1 14,0a7,7 0 1,1 -14,0M74.5 39.5a7,7 0 1,1 14,0a7,7 0 1,1 -14,0M74.5 60.5a7,7 0 1,1 14,0a7,7 0 1,1 -14,0M11.5 60.5a7,7 0 1,1 14,0a7,7 0 1,1 -14,0"/><path fill="#7ecc66" d="M29 29L8 29L8 18.5ZM71 29L71 8L81.5 8ZM71 71L92 71L92 81.5ZM29 71L29 92L18.5 92ZM34 34L48 34L48 48L34 48ZM66 34L66 48L52 48L52 34ZM66 66L52 66L52 52L66 52ZM34 66L34 52L48 52L48 66Z"/></svg>