<svg width="35" height="35" viewBox="0 0 35 35" fill="none" xmlns="http://www.w3.org/2000/svg">
<g clip-path="url(#clip0_619_2299)">
<path d="M35 19.5984H33.3326V21.2335H35V19.5984Z" fill="#BA0900"/>
<path d="M35 17.9658H33.3326V19.5985H35V17.9658Z" fill="#BA0900"/>
<path d="M35 16.333H33.3326V17.9657H35V16.333Z" fill="#BA0900"/>
<path d="M35 14.7004H33.3326V16.3331H35V14.7004Z" fill="#BA0900"/>
<path d="M35 13.0652H33.3326V14.7003H35V13.0652Z" fill="#BA0900"/>
<path d="M33.3338 22.8662H31.6664V24.4989H33.3338V22.8662Z" fill="#BA0900"/>
<path d="M33.3338 21.2336H31.6664V22.8663H33.3338V21.2336Z" fill="#BA0900"/>
<path d="M33.3338 19.5984H31.6664V21.2335H33.3338V19.5984Z" fill="#BA0900"/>
<path d="M33.3338 17.9658H31.6664V19.5985H33.3338V17.9658Z" fill="#E2E0E0"/>
<path d="M33.3338 16.333H31.6664V17.9657H33.3338V16.333Z" fill="#E2E0E0"/>
<path d="M33.3338 14.7004H31.6664V16.3331H33.3338V14.7004Z" fill="white"/>
<path d="M33.3338 13.0652H31.6664V14.7003H33.3338V13.0652Z" fill="#E22405"/>
<path d="M33.3338 11.4338H31.6664V13.0665H33.3338V11.4338Z" fill="#BA0900"/>
<path d="M33.3338 9.80103H31.6664V11.4337H33.3338V9.80103Z" fill="#BA0900"/>
<path d="M31.6664 26.134H29.9989V27.7667H31.6664V26.134Z" fill="#BA0900"/>
<path d="M31.6664 24.499H29.9989V26.1342H31.6664V24.499Z" fill="#BA0900"/>
<path d="M31.6664 22.8662H29.9989V24.4989H31.6664V22.8662Z" fill="#BA0900"/>
<path d="M31.6664 21.2336H29.9989V22.8663H31.6664V21.2336Z" fill="#E22405"/>
<path d="M31.6664 19.5984H29.9989V21.2335H31.6664V19.5984Z" fill="#E22405"/>
<path d="M31.6664 17.9658H29.9989V19.5985H31.6664V17.9658Z" fill="white"/>
<path d="M31.6664 16.333H29.9989V17.9657H31.6664V16.333Z" fill="white"/>
<path d="M31.6664 14.7004H29.9989V16.3331H31.6664V14.7004Z" fill="white"/>
<path d="M31.6664 13.0652H29.9989V14.7003H31.6664V13.0652Z" fill="#E22405"/>
<path d="M31.6664 11.4338H29.9989V13.0665H31.6664V11.4338Z" fill="#E22405"/>
<path d="M31.6664 9.80103H29.9989V11.4337H31.6664V9.80103Z" fill="#E22405"/>
<path d="M31.6664 8.16602H29.9989V9.80116H31.6664V8.16602Z" fill="#BA0900"/>
<path d="M31.6664 6.5332H29.9989V8.16589H31.6664V6.5332Z" fill="#BA0900"/>
<path d="M29.9989 27.7668H28.3315V29.3995H29.9989V27.7668Z" fill="#BA0900"/>
<path d="M29.9989 26.134H28.3315V27.7667H29.9989V26.134Z" fill="#E2E0E0"/>
<path d="M29.9989 24.499H28.3315V26.1342H29.9989V24.499Z" fill="#E2E0E0"/>
<path d="M29.9989 22.8662H28.3315V24.4989H29.9989V22.8662Z" fill="#E22405"/>
<path d="M29.9989 21.2336H28.3315V22.8663H29.9989V21.2336Z" fill="#E22405"/>
<path d="M29.9989 19.5984H28.3315V21.2335H29.9989V19.5984Z" fill="#E22405"/>
<path d="M29.9989 17.9658H28.3315V19.5985H29.9989V17.9658Z" fill="white"/>
<path d="M29.9989 16.333H28.3315V17.9657H29.9989V16.333Z" fill="white"/>
<path d="M29.9989 14.7004H28.3315V16.3331H29.9989V14.7004Z" fill="white"/>
<path d="M29.9989 13.0652H28.3315V14.7003H29.9989V13.0652Z" fill="#E22405"/>
<path d="M29.9989 11.4338H28.3315V13.0665H29.9989V11.4338Z" fill="#E22405"/>
<path d="M29.9989 9.80103H28.3315V11.4337H29.9989V9.80103Z" fill="#E22405"/>
<path d="M29.9989 8.16602H28.3315V9.80116H29.9989V8.16602Z" fill="white"/>
<path d="M29.9989 6.5332H28.3315V8.16589H29.9989V6.5332Z" fill="white"/>
<path d="M29.9989 4.90063H28.3315V6.53332H29.9989V4.90063Z" fill="#BA0900"/>
<path d="M28.3327 29.3994H26.6653V31.0321H28.3327V29.3994Z" fill="#BA0900"/>
<path d="M28.3327 27.7668H26.6653V29.3995H28.3327V27.7668Z" fill="#E2E0E0"/>
<path d="M28.3327 26.134H26.6653V27.7667H28.3327V26.134Z" fill="white"/>
<path d="M28.3327 24.499H26.6653V26.1342H28.3327V24.499Z" fill="white"/>
<path d="M28.3327 22.8662H26.6653V24.4989H28.3327V22.8662Z" fill="white"/>
<path d="M28.3327 21.2336H26.6653V22.8663H28.3327V21.2336Z" fill="#E22405"/>
<path d="M28.3327 19.5984H26.6653V21.2335H28.3327V19.5984Z" fill="#E22405"/>
<path d="M28.3327 17.9658H26.6653V19.5985H28.3327V17.9658Z" fill="#BA0900"/>
<path d="M28.3327 16.333H26.6653V17.9657H28.3327V16.333Z" fill="#BA0900"/>
<path d="M28.3327 14.7004H26.6653V16.3331H28.3327V14.7004Z" fill="#BA0900"/>
<path d="M28.3327 13.0652H26.6653V14.7003H28.3327V13.0652Z" fill="#E22405"/>
<path d="M28.3327 11.4338H26.6653V13.0665H28.3327V11.4338Z" fill="#E22405"/>
<path d="M28.3327 9.80103H26.6653V11.4337H28.3327V9.80103Z" fill="white"/>
<path d="M28.3327 8.16602H26.6653V9.80116H28.3327V8.16602Z" fill="white"/>
<path d="M28.3327 6.5332H26.6653V8.16589H28.3327V6.5332Z" fill="white"/>
<path d="M28.3327 4.90063H26.6653V6.53332H28.3327V4.90063Z" fill="white"/>
<path d="M28.3327 3.26782H26.6653V4.90051H28.3327V3.26782Z" fill="#BA0900"/>
<path d="M26.6653 29.3994H25.0004V31.0321H26.6653V29.3994Z" fill="#BA0900"/>
<path d="M26.6653 27.7668H25.0004V29.3995H26.6653V27.7668Z" fill="#E2E0E0"/>
<path d="M26.6653 26.134H25.0004V27.7667H26.6653V26.134Z" fill="white"/>
<path d="M26.6653 24.499H25.0004V26.1342H26.6653V24.499Z" fill="white"/>
<path d="M26.6653 22.8662H25.0004V24.4989H26.6653V22.8662Z" fill="#BA0900"/>
<path d="M26.6653 21.2336H25.0004V22.8663H26.6653V21.2336Z" fill="#BA0900"/>
<path d="M26.6653 19.5984H25.0004V21.2335H26.6653V19.5984Z" fill="#BA0900"/>
<path d="M26.6653 17.9658H25.0004V19.5985H26.6653V17.9658Z" fill="#E22405"/>
<path d="M26.6653 16.333H25.0004V17.9657H26.6653V16.333Z" fill="#E22405"/>
<path d="M26.6653 14.7004H25.0004V16.3331H26.6653V14.7004Z" fill="#E22405"/>
<path d="M26.6653 13.0652H25.0004V14.7003H26.6653V13.0652Z" fill="#BA0900"/>
<path d="M26.6653 11.4338H25.0004V13.0665H26.6653V11.4338Z" fill="#BA0900"/>
<path d="M26.6653 9.80103H25.0004V11.4337H26.6653V9.80103Z" fill="#BA0900"/>
<path d="M26.6653 8.16602H25.0004V9.80116H26.6653V8.16602Z" fill="white"/>
<path d="M26.6653 6.5332H25.0004V8.16589H26.6653V6.5332Z" fill="white"/>
<path d="M26.6653 4.90063H25.0004V6.53332H26.6653V4.90063Z" fill="white"/>
<path d="M26.6653 3.26782H25.0004V4.90051H26.6653V3.26782Z" fill="#BA0900"/>
<path d="M25.0004 31.0322H23.3329V32.6674H25.0004V31.0322Z" fill="#BA0900"/>
<path d="M25.0004 29.3994H23.3329V31.0321H25.0004V29.3994Z" fill="#BA0900"/>
<path d="M25.0004 27.7668H23.3329V29.3995H25.0004V27.7668Z" fill="#E22405"/>
<path d="M25.0004 26.134H23.3329V27.7667H25.0004V26.134Z" fill="white"/>
<path d="M25.0004 24.499H23.3329V26.1342H25.0004V24.499Z" fill="#BA0900"/>
<path d="M25.0004 22.8662H23.3329V24.4989H25.0004V22.8662Z" fill="#BA0900"/>
<path d="M25.0004 21.2336H23.3329V22.8663H25.0004V21.2336Z" fill="#BA0900"/>
<path d="M25.0004 19.5984H23.3329V21.2335H25.0004V19.5984Z" fill="#E22405"/>
<path d="M25.0004 17.9658H23.3329V19.5985H25.0004V17.9658Z" fill="#E2E0E0"/>
<path d="M25.0004 16.333H23.3329V17.9657H25.0004V16.333Z" fill="white"/>
<path d="M25.0004 14.7004H23.3329V16.3331H25.0004V14.7004Z" fill="white"/>
<path d="M25.0004 13.0652H23.3329V14.7003H25.0004V13.0652Z" fill="#E22405"/>
<path d="M25.0004 11.4338H23.3329V13.0665H25.0004V11.4338Z" fill="#E22405"/>
<path d="M25.0004 9.80103H23.3329V11.4337H25.0004V9.80103Z" fill="#E22405"/>
<path d="M25.0004 8.16602H23.3329V9.80116H25.0004V8.16602Z" fill="#BA0900"/>
<path d="M25.0004 6.5332H23.3329V8.16589H25.0004V6.5332Z" fill="white"/>
<path d="M25.0004 4.90063H23.3329V6.53332H25.0004V4.90063Z" fill="#E22405"/>
<path d="M25.0004 3.26782H23.3329V4.90051H25.0004V3.26782Z" fill="#E22405"/>
<path d="M25.0004 1.63257H23.3329V3.26772H25.0004V1.63257Z" fill="#BA0900"/>
<path d="M23.3342 31.0322H21.6667V32.6674H23.3342V31.0322Z" fill="#BA0900"/>
<path d="M23.3342 29.3994H21.6667V31.0321H23.3342V29.3994Z" fill="#BA0900"/>
<path d="M23.3342 27.7668H21.6667V29.3995H23.3342V27.7668Z" fill="#E22405"/>
<path d="M23.3342 26.134H21.6667V27.7667H23.3342V26.134Z" fill="#E22405"/>
<path d="M23.3342 24.499H21.6667V26.1342H23.3342V24.499Z" fill="#BA0900"/>
<path d="M23.3342 22.8662H21.6667V24.4989H23.3342V22.8662Z" fill="#BA0900"/>
<path d="M23.3342 21.2336H21.6667V22.8663H23.3342V21.2336Z" fill="#E22405"/>
<path d="M23.3342 19.5984H21.6667V21.2335H23.3342V19.5984Z" fill="#E2E0E0"/>
<path d="M23.3342 17.9658H21.6667V19.5985H23.3342V17.9658Z" fill="white"/>
<path d="M23.3342 16.333H21.6667V17.9657H23.3342V16.333Z" fill="white"/>
<path d="M23.3342 14.7004H21.6667V16.3331H23.3342V14.7004Z" fill="white"/>
<path d="M23.3342 13.0652H21.6667V14.7003H23.3342V13.0652Z" fill="white"/>
<path d="M23.3342 11.4338H21.6667V13.0665H23.3342V11.4338Z" fill="#E22405"/>
<path d="M23.3342 9.80103H21.6667V11.4337H23.3342V9.80103Z" fill="#E22405"/>
<path d="M23.3342 8.16602H21.6667V9.80116H23.3342V8.16602Z" fill="#BA0900"/>
<path d="M23.3342 6.5332H21.6667V8.16589H23.3342V6.5332Z" fill="#E22405"/>
<path d="M23.3342 4.90063H21.6667V6.53332H23.3342V4.90063Z" fill="#E22405"/>
<path d="M23.3342 3.26782H21.6667V4.90051H23.3342V3.26782Z" fill="#E22405"/>
<path d="M23.3342 1.63257H21.6667V3.26772H23.3342V1.63257Z" fill="#BA0900"/>
<path d="M21.6667 32.6672H19.9993V34.2999H21.6667V32.6672Z" fill="#BA0900"/>
<path d="M21.6667 31.0322H19.9993V32.6674H21.6667V31.0322Z" fill="#BA0900"/>
<path d="M21.6667 29.3994H19.9993V31.0321H21.6667V29.3994Z" fill="#E22405"/>
<path d="M21.6667 27.7668H19.9993V29.3995H21.6667V27.7668Z" fill="#E22405"/>
<path d="M21.6667 26.134H19.9993V27.7667H21.6667V26.134Z" fill="#E22405"/>
<path d="M21.6667 24.499H19.9993V26.1342H21.6667V24.499Z" fill="#BA0900"/>
<path d="M21.6667 22.8662H19.9993V24.4989H21.6667V22.8662Z" fill="#BA0900"/>
<path d="M21.6667 21.2336H19.9993V22.8663H21.6667V21.2336Z" fill="#E2E0E0"/>
<path d="M21.6667 19.5984H19.9993V21.2335H21.6667V19.5984Z" fill="white"/>
<path d="M21.6667 17.9658H19.9993V19.5985H21.6667V17.9658Z" fill="white"/>
<path d="M21.6667 16.333H19.9993V17.9657H21.6667V16.333Z" fill="white"/>
<path d="M21.6667 14.7004H19.9993V16.3331H21.6667V14.7004Z" fill="white"/>
<path d="M21.6667 13.0652H19.9993V14.7003H21.6667V13.0652Z" fill="white"/>
<path d="M21.6667 11.4338H19.9993V13.0665H21.6667V11.4338Z" fill="white"/>
<path d="M21.6667 9.80103H19.9993V11.4337H21.6667V9.80103Z" fill="#E22405"/>
<path d="M21.6667 8.16602H19.9993V9.80116H21.6667V8.16602Z" fill="#BA0900"/>
<path d="M21.6667 6.5332H19.9993V8.16589H21.6667V6.5332Z" fill="#E22405"/>
<path d="M21.6667 4.90063H19.9993V6.53332H21.6667V4.90063Z" fill="#E22405"/>
<path d="M21.6667 3.26782H19.9993V4.90051H21.6667V3.26782Z" fill="#E22405"/>
<path d="M21.6667 1.63257H19.9993V3.26772H21.6667V1.63257Z" fill="#E22405"/>
<path d="M21.6667 0H19.9993V1.63269H21.6667V0Z" fill="#BA0900"/>
<path d="M19.9993 32.6672H18.3319V34.2999H19.9993V32.6672Z" fill="#BA0900"/>
<path d="M19.9993 31.0322H18.3319V32.6674H19.9993V31.0322Z" fill="#E2E0E0"/>
<path d="M19.9993 29.3994H18.3319V31.0321H19.9993V29.3994Z" fill="white"/>
<path d="M19.9993 27.7668H18.3319V29.3995H19.9993V27.7668Z" fill="white"/>
<path d="M19.9993 26.134H18.3319V27.7667H19.9993V26.134Z" fill="#BA0900"/>
<path d="M19.9993 24.499H18.3319V26.1342H19.9993V24.499Z" fill="#BA0900"/>
<path d="M19.9993 22.8662H18.3319V24.4989H19.9993V22.8662Z" fill="#E2E0E0"/>
<path d="M19.9993 21.2336H18.3319V22.8663H19.9993V21.2336Z" fill="white"/>
<path d="M19.9993 19.5984H18.3319V21.2335H19.9993V19.5984Z" fill="white"/>
<path d="M19.9993 17.9658H18.3319V19.5985H19.9993V17.9658Z" fill="white"/>
<path d="M19.9993 16.333H18.3319V17.9657H19.9993V16.333Z" fill="white"/>
<path d="M19.9993 14.7004H18.3319V16.3331H19.9993V14.7004Z" fill="white"/>
<path d="M19.9993 13.0652H18.3319V14.7003H19.9993V13.0652Z" fill="white"/>
<path d="M19.9993 11.4338H18.3319V13.0665H19.9993V11.4338Z" fill="white"/>
<path d="M19.9993 9.80103H18.3319V11.4337H19.9993V9.80103Z" fill="white"/>
<path d="M19.9993 8.16602H18.3319V9.80116H19.9993V8.16602Z" fill="#E22405"/>
<path d="M19.9993 6.5332H18.3319V8.16589H19.9993V6.5332Z" fill="#BA0900"/>
<path d="M19.9993 4.90063H18.3319V6.53332H19.9993V4.90063Z" fill="white"/>
<path d="M19.9993 3.26782H18.3319V4.90051H19.9993V3.26782Z" fill="white"/>
<path d="M19.9993 1.63257H18.3319V3.26772H19.9993V1.63257Z" fill="white"/>
<path d="M19.9993 0H18.3319V1.63269H19.9993V0Z" fill="#BA0900"/>
<path d="M18.3331 32.6672H16.6681V34.2999H18.3331V32.6672Z" fill="#BA0900"/>
<path d="M18.3331 31.0322H16.6681V32.6674H18.3331V31.0322Z" fill="#E2E0E0"/>
<path d="M18.3331 29.3994H16.6681V31.0321H18.3331V29.3994Z" fill="white"/>
<path d="M18.3331 27.7668H16.6681V29.3995H18.3331V27.7668Z" fill="white"/>
<path d="M18.3331 26.134H16.6681V27.7667H18.3331V26.134Z" fill="#BA0900"/>
<path d="M18.3331 24.499H16.6681V26.1342H18.3331V24.499Z" fill="#BA0900"/>
<path d="M18.3331 22.8662H16.6681V24.4989H18.3331V22.8662Z" fill="#E2E0E0"/>
<path d="M18.3331 21.2336H16.6681V22.8663H18.3331V21.2336Z" fill="white"/>
<path d="M18.3331 19.5984H16.6681V21.2335H18.3331V19.5984Z" fill="white"/>
<path d="M18.3331 17.9658H16.6681V19.5985H18.3331V17.9658Z" fill="white"/>
<path d="M18.3331 16.333H16.6681V17.9657H18.3331V16.333Z" fill="white"/>
<path d="M18.3331 14.7004H16.6681V16.3331H18.3331V14.7004Z" fill="white"/>
<path d="M18.3331 13.0652H16.6681V14.7003H18.3331V13.0652Z" fill="white"/>
<path d="M18.3331 11.4338H16.6681V13.0665H18.3331V11.4338Z" fill="white"/>
<path d="M18.3331 9.80103H16.6681V11.4337H18.3331V9.80103Z" fill="white"/>
<path d="M18.3331 8.16602H16.6681V9.80116H18.3331V8.16602Z" fill="#E22405"/>
<path d="M18.3331 6.5332H16.6681V8.16589H18.3331V6.5332Z" fill="#BA0900"/>
<path d="M18.3331 4.90063H16.6681V6.53332H18.3331V4.90063Z" fill="white"/>
<path d="M18.3331 3.26782H16.6681V4.90051H18.3331V3.26782Z" fill="white"/>
<path d="M18.3331 1.63257H16.6681V3.26772H18.3331V1.63257Z" fill="white"/>
<path d="M18.3331 0H16.6681V1.63269H18.3331V0Z" fill="#BA0900"/>
<path d="M16.6681 32.6672H15.0007V34.2999H16.6681V32.6672Z" fill="#BA0900"/>
<path d="M16.6681 31.0322H15.0007V32.6674H16.6681V31.0322Z" fill="#E2E0E0"/>
<path d="M16.6681 29.3994H15.0007V31.0321H16.6681V29.3994Z" fill="white"/>
<path d="M16.6681 27.7668H15.0007V29.3995H16.6681V27.7668Z" fill="white"/>
<path d="M16.6681 26.134H15.0007V27.7667H16.6681V26.134Z" fill="#BA0900"/>
<path d="M16.6681 24.499H15.0007V26.1342H16.6681V24.499Z" fill="#BA0900"/>
<path d="M16.6681 22.8662H15.0007V24.4989H16.6681V22.8662Z" fill="#E2E0E0"/>
<path d="M16.6681 21.2336H15.0007V22.8663H16.6681V21.2336Z" fill="white"/>
<path d="M16.6681 19.5984H15.0007V21.2335H16.6681V19.5984Z" fill="white"/>
<path d="M16.6681 17.9658H15.0007V19.5985H16.6681V17.9658Z" fill="white"/>
<path d="M16.6681 16.333H15.0007V17.9657H16.6681V16.333Z" fill="white"/>
<path d="M16.6681 14.7004H15.0007V16.3331H16.6681V14.7004Z" fill="white"/>
<path d="M16.6681 13.0652H15.0007V14.7003H16.6681V13.0652Z" fill="white"/>
<path d="M16.6681 11.4338H15.0007V13.0665H16.6681V11.4338Z" fill="white"/>
<path d="M16.6681 9.80103H15.0007V11.4337H16.6681V9.80103Z" fill="white"/>
<path d="M16.6681 8.16602H15.0007V9.80116H16.6681V8.16602Z" fill="#E22405"/>
<path d="M16.6681 6.5332H15.0007V8.16589H16.6681V6.5332Z" fill="#BA0900"/>
<path d="M16.6681 4.90063H15.0007V6.53332H16.6681V4.90063Z" fill="white"/>
<path d="M16.6681 3.26782H15.0007V4.90051H16.6681V3.26782Z" fill="white"/>
<path d="M16.6681 1.63257H15.0007V3.26772H16.6681V1.63257Z" fill="white"/>
<path d="M16.6681 0H15.0007V1.63269H16.6681V0Z" fill="#BA0900"/>
<path d="M15.0007 32.6672H13.3333V34.2999H15.0007V32.6672Z" fill="#BA0900"/>
<path d="M15.0007 31.0322H13.3333V32.6674H15.0007V31.0322Z" fill="#BA0900"/>
<path d="M15.0007 29.3994H13.3333V31.0321H15.0007V29.3994Z" fill="#E22405"/>
<path d="M15.0007 27.7668H13.3333V29.3995H15.0007V27.7668Z" fill="#E22405"/>
<path d="M15.0007 26.134H13.3333V27.7667H15.0007V26.134Z" fill="#E22405"/>
<path d="M15.0007 24.499H13.3333V26.1342H15.0007V24.499Z" fill="#BA0900"/>
<path d="M15.0007 22.8662H13.3333V24.4989H15.0007V22.8662Z" fill="#E22405"/>
<path d="M15.0007 21.2336H13.3333V22.8663H15.0007V21.2336Z" fill="#E2E0E0"/>
<path d="M15.0007 19.5984H13.3333V21.2335H15.0007V19.5984Z" fill="white"/>
<path d="M15.0007 17.9658H13.3333V19.5985H15.0007V17.9658Z" fill="white"/>
<path d="M15.0007 16.333H13.3333V17.9657H15.0007V16.333Z" fill="white"/>
<path d="M15.0007 14.7004H13.3333V16.3331H15.0007V14.7004Z" fill="white"/>
<path d="M15.0007 13.0652H13.3333V14.7003H15.0007V13.0652Z" fill="white"/>
<path d="M15.0007 11.4338H13.3333V13.0665H15.0007V11.4338Z" fill="white"/>
<path d="M15.0007 9.80103H13.3333V11.4337H15.0007V9.80103Z" fill="#E22405"/>
<path d="M15.0007 8.16602H13.3333V9.80116H15.0007V8.16602Z" fill="#BA0900"/>
<path d="M15.0007 6.5332H13.3333V8.16589H15.0007V6.5332Z" fill="#E22405"/>
<path d="M15.0007 4.90063H13.3333V6.53332H15.0007V4.90063Z" fill="#E22405"/>
<path d="M15.0007 3.26782H13.3333V4.90051H15.0007V3.26782Z" fill="#E22405"/>
<path d="M15.0007 1.63257H13.3333V3.26772H15.0007V1.63257Z" fill="#E22405"/>
<path d="M15.0007 0H13.3333V1.63269H15.0007V0Z" fill="#BA0900"/>
<path d="M13.3345 31.0322H11.6671V32.6674H13.3345V31.0322Z" fill="#BA0900"/>
<path d="M13.3345 29.3994H11.6671V31.0321H13.3345V29.3994Z" fill="#E22405"/>
<path d="M13.3345 27.7668H11.6671V29.3995H13.3345V27.7668Z" fill="#E22405"/>
<path d="M13.3345 26.134H11.6671V27.7667H13.3345V26.134Z" fill="#E22405"/>
<path d="M13.3345 24.499H11.6671V26.1342H13.3345V24.499Z" fill="#BA0900"/>
<path d="M13.3345 22.8662H11.6671V24.4989H13.3345V22.8662Z" fill="#E22405"/>
<path d="M13.3345 21.2336H11.6671V22.8663H13.3345V21.2336Z" fill="#E22405"/>
<path d="M13.3345 19.5984H11.6671V21.2335H13.3345V19.5984Z" fill="#E2E0E0"/>
<path d="M13.3345 17.9658H11.6671V19.5985H13.3345V17.9658Z" fill="white"/>
<path d="M13.3345 16.333H11.6671V17.9657H13.3345V16.333Z" fill="white"/>
<path d="M13.3345 14.7004H11.6671V16.3331H13.3345V14.7004Z" fill="white"/>
<path d="M13.3345 13.0652H11.6671V14.7003H13.3345V13.0652Z" fill="white"/>
<path d="M13.3345 11.4338H11.6671V13.0665H13.3345V11.4338Z" fill="#E22405"/>
<path d="M13.3345 9.80103H11.6671V11.4337H13.3345V9.80103Z" fill="#E22405"/>
<path d="M13.3345 8.16602H11.6671V9.80116H13.3345V8.16602Z" fill="#BA0900"/>
<path d="M13.3345 6.5332H11.6671V8.16589H13.3345V6.5332Z" fill="#E22405"/>
<path d="M13.3345 4.90063H11.6671V6.53332H13.3345V4.90063Z" fill="#E22405"/>
<path d="M13.3345 3.26782H11.6671V4.90051H13.3345V3.26782Z" fill="#E22405"/>
<path d="M13.3345 1.63257H11.6671V3.26772H13.3345V1.63257Z" fill="#BA0900"/>
<path d="M11.6671 31.0322H9.99965V32.6674H11.6671V31.0322Z" fill="#BA0900"/>
<path d="M11.6671 29.3994H9.99965V31.0321H11.6671V29.3994Z" fill="#BA0900"/>
<path d="M11.6671 27.7668H9.99965V29.3995H11.6671V27.7668Z" fill="#E22405"/>
<path d="M11.6671 26.134H9.99965V27.7667H11.6671V26.134Z" fill="white"/>
<path d="M11.6671 24.499H9.99965V26.1342H11.6671V24.499Z" fill="#BA0900"/>
<path d="M11.6671 22.8662H9.99965V24.4989H11.6671V22.8662Z" fill="#E22405"/>
<path d="M11.6671 21.2336H9.99965V22.8663H11.6671V21.2336Z" fill="#E22405"/>
<path d="M11.6671 19.5984H9.99965V21.2335H11.6671V19.5984Z" fill="#E22405"/>
<path d="M11.6671 17.9658H9.99965V19.5985H11.6671V17.9658Z" fill="white"/>
<path d="M11.6671 16.333H9.99965V17.9657H11.6671V16.333Z" fill="white"/>
<path d="M11.6671 14.7004H9.99965V16.3331H11.6671V14.7004Z" fill="white"/>
<path d="M11.6671 13.0652H9.99965V14.7003H11.6671V13.0652Z" fill="#E22405"/>
<path d="M11.6671 11.4338H9.99965V13.0665H11.6671V11.4338Z" fill="#E22405"/>
<path d="M11.6671 9.80103H9.99965V11.4337H11.6671V9.80103Z" fill="#E22405"/>
<path d="M11.6671 8.16602H9.99965V9.80116H11.6671V8.16602Z" fill="#BA0900"/>
<path d="M11.6671 6.5332H9.99965V8.16589H11.6671V6.5332Z" fill="white"/>
<path d="M11.6671 4.90063H9.99965V6.53332H11.6671V4.90063Z" fill="#E22405"/>
<path d="M11.6671 3.26782H9.99965V4.90051H11.6671V3.26782Z" fill="#E22405"/>
<path d="M11.6671 1.63257H9.99965V3.26772H11.6671V1.63257Z" fill="#BA0900"/>
<path d="M9.99965 29.3994H8.33221V31.0321H9.99965V29.3994Z" fill="#BA0900"/>
<path d="M9.99965 27.7668H8.33221V29.3995H9.99965V27.7668Z" fill="#E2E0E0"/>
<path d="M9.99965 26.134H8.33221V27.7667H9.99965V26.134Z" fill="white"/>
<path d="M9.99965 24.499H8.33221V26.1342H9.99965V24.499Z" fill="white"/>
<path d="M9.99965 22.8662H8.33221V24.4989H9.99965V22.8662Z" fill="#BA0900"/>
<path d="M9.99965 21.2336H8.33221V22.8663H9.99965V21.2336Z" fill="#BA0900"/>
<path d="M9.99965 19.5984H8.33221V21.2335H9.99965V19.5984Z" fill="#BA0900"/>
<path d="M9.99965 17.9658H8.33221V19.5985H9.99965V17.9658Z" fill="#E22405"/>
<path d="M9.99965 16.333H8.33221V17.9657H9.99965V16.333Z" fill="#E22405"/>
<path d="M9.99965 14.7004H8.33221V16.3331H9.99965V14.7004Z" fill="#E22405"/>
<path d="M9.99965 13.0652H8.33221V14.7003H9.99965V13.0652Z" fill="#BA0900"/>
<path d="M9.99965 11.4338H8.33221V13.0665H9.99965V11.4338Z" fill="#BA0900"/>
<path d="M9.99965 9.80103H8.33221V11.4337H9.99965V9.80103Z" fill="#BA0900"/>
<path d="M9.99965 8.16602H8.33221V9.80116H9.99965V8.16602Z" fill="white"/>
<path d="M9.99965 6.5332H8.33221V8.16589H9.99965V6.5332Z" fill="white"/>
<path d="M9.99965 4.90063H8.33221V6.53332H9.99965V4.90063Z" fill="white"/>
<path d="M9.99965 3.26782H8.33221V4.90051H9.99965V3.26782Z" fill="#BA0900"/>
<path d="M8.33345 29.3994H6.66849V31.0321H8.33345V29.3994Z" fill="#BA0900"/>
<path d="M8.33345 27.7668H6.66849V29.3995H8.33345V27.7668Z" fill="#E2E0E0"/>
<path d="M8.33345 26.134H6.66849V27.7667H8.33345V26.134Z" fill="white"/>
<path d="M8.33345 24.499H6.66849V26.1342H8.33345V24.499Z" fill="white"/>
<path d="M8.33345 22.8662H6.66849V24.4989H8.33345V22.8662Z" fill="white"/>
<path d="M8.33345 21.2336H6.66849V22.8663H8.33345V21.2336Z" fill="#E22405"/>
<path d="M8.33345 19.5984H6.66849V21.2335H8.33345V19.5984Z" fill="#E22405"/>
<path d="M8.33345 17.9658H6.66849V19.5985H8.33345V17.9658Z" fill="#BA0900"/>
<path d="M8.33345 16.333H6.66849V17.9657H8.33345V16.333Z" fill="#BA0900"/>
<path d="M8.33345 14.7004H6.66849V16.3331H8.33345V14.7004Z" fill="#BA0900"/>
<path d="M8.33345 13.0652H6.66849V14.7003H8.33345V13.0652Z" fill="#E22405"/>
<path d="M8.33345 11.4338H6.66849V13.0665H8.33345V11.4338Z" fill="#E22405"/>
<path d="M8.33345 9.80103H6.66849V11.4337H8.33345V9.80103Z" fill="white"/>
<path d="M8.33345 8.16602H6.66849V9.80116H8.33345V8.16602Z" fill="white"/>
<path d="M8.33345 6.5332H6.66849V8.16589H8.33345V6.5332Z" fill="white"/>
<path d="M8.33345 4.90063H6.66849V6.53332H8.33345V4.90063Z" fill="white"/>
<path d="M8.33345 3.26782H6.66849V4.90051H8.33345V3.26782Z" fill="#BA0900"/>
<path d="M6.66849 27.7668H5.00106V29.3995H6.66849V27.7668Z" fill="#BA0900"/>
<path d="M6.66849 26.134H5.00106V27.7667H6.66849V26.134Z" fill="#E2E0E0"/>
<path d="M6.66849 24.499H5.00106V26.1342H6.66849V24.499Z" fill="white"/>
<path d="M6.66849 22.8662H5.00106V24.4989H6.66849V22.8662Z" fill="#E22405"/>
<path d="M6.66849 21.2336H5.00106V22.8663H6.66849V21.2336Z" fill="#E22405"/>
<path d="M6.66849 19.5984H5.00106V21.2335H6.66849V19.5984Z" fill="#E22405"/>
<path d="M6.66849 17.9658H5.00106V19.5985H6.66849V17.9658Z" fill="white"/>
<path d="M6.66849 16.333H5.00106V17.9657H6.66849V16.333Z" fill="white"/>
<path d="M6.66849 14.7004H5.00106V16.3331H6.66849V14.7004Z" fill="white"/>
<path d="M6.66849 13.0652H5.00106V14.7003H6.66849V13.0652Z" fill="#E22405"/>
<path d="M6.66849 11.4338H5.00106V13.0665H6.66849V11.4338Z" fill="#E22405"/>
<path d="M6.66849 9.80103H5.00106V11.4337H6.66849V9.80103Z" fill="#E22405"/>
<path d="M6.66849 8.16602H5.00106V9.80116H6.66849V8.16602Z" fill="white"/>
<path d="M6.66849 6.5332H5.00106V8.16589H6.66849V6.5332Z" fill="white"/>
<path d="M6.66849 4.90063H5.00106V6.53332H6.66849V4.90063Z" fill="#BA0900"/>
<path d="M5.00106 26.134H3.33363V27.7667H5.00106V26.134Z" fill="#BA0900"/>
<path d="M5.00106 24.499H3.33363V26.1342H5.00106V24.499Z" fill="#BA0900"/>
<path d="M5.00106 22.8662H3.33363V24.4989H5.00106V22.8662Z" fill="#BA0900"/>
<path d="M5.00106 21.2336H3.33363V22.8663H5.00106V21.2336Z" fill="#E22405"/>
<path d="M5.00106 19.5984H3.33363V21.2335H5.00106V19.5984Z" fill="#E22405"/>
<path d="M5.00106 17.9658H3.33363V19.5985H5.00106V17.9658Z" fill="white"/>
<path d="M5.00106 16.333H3.33363V17.9657H5.00106V16.333Z" fill="white"/>
<path d="M5.00106 14.7004H3.33363V16.3331H5.00106V14.7004Z" fill="white"/>
<path d="M5.00106 13.0652H3.33363V14.7003H5.00106V13.0652Z" fill="#E22405"/>
<path d="M5.00106 11.4338H3.33363V13.0665H5.00106V11.4338Z" fill="#E22405"/>
<path d="M5.00106 9.80103H3.33363V11.4337H5.00106V9.80103Z" fill="#E22405"/>
<path d="M5.00106 8.16602H3.33363V9.80116H5.00106V8.16602Z" fill="#BA0900"/>
<path d="M5.00106 6.5332H3.33363V8.16589H5.00106V6.5332Z" fill="#BA0900"/>
<path d="M3.33486 22.8662H1.66743V24.4989H3.33486V22.8662Z" fill="#BA0900"/>
<path d="M3.33486 21.2336H1.66743V22.8663H3.33486V21.2336Z" fill="#BA0900"/>
<path d="M3.33486 19.5984H1.66743V21.2335H3.33486V19.5984Z" fill="#E22405"/>
<path d="M3.33486 17.9658H1.66743V19.5985H3.33486V17.9658Z" fill="white"/>
<path d="M3.33486 16.333H1.66743V17.9657H3.33486V16.333Z" fill="white"/>
<path d="M3.33486 14.7004H1.66743V16.3331H3.33486V14.7004Z" fill="white"/>
<path d="M3.33486 13.0652H1.66743V14.7003H3.33486V13.0652Z" fill="#E22405"/>
<path d="M3.33486 11.4338H1.66743V13.0665H3.33486V11.4338Z" fill="#BA0900"/>
<path d="M3.33486 9.80103H1.66743V11.4337H3.33486V9.80103Z" fill="#BA0900"/>
<path d="M1.66743 19.5984H0V21.2335H1.66743V19.5984Z" fill="#BA0900"/>
<path d="M1.66743 17.9658H0V19.5985H1.66743V17.9658Z" fill="#BA0900"/>
<path d="M1.66743 16.333H0V17.9657H1.66743V16.333Z" fill="#BA0900"/>
<path d="M1.66743 14.7004H0V16.3331H1.66743V14.7004Z" fill="#BA0900"/>
<path d="M1.66743 13.0652H0V14.7003H1.66743V13.0652Z" fill="#BA0900"/>
</g>
<defs>
<clipPath id="clip0_619_2299">
<rect width="35" height="34.3" fill="white"/>
</clipPath>
</defs>
</svg>
