<svg width="29" height="34" viewBox="0 0 29 34" fill="none" xmlns="http://www.w3.org/2000/svg">
<g clip-path="url(#clip0_607_1780)">
<path d="M29 3.23926H27.3881V4.85767H29V3.23926Z" fill="#FFDE00"/>
<path d="M27.3893 6.47607H25.7774V8.09448H27.3893V6.47607Z" fill="#FFDE00"/>
<path d="M27.3893 0H25.7774V1.61841H27.3893V0Z" fill="#FFDE00"/>
<path d="M25.7774 4.85767H24.1655V6.47608H25.7774V4.85767Z" fill="#FFDE00"/>
<path d="M25.7774 1.61841H24.1655V3.23925H25.7774V1.61841Z" fill="#FFDE00"/>
<path d="M24.1667 22.6663H22.5547V24.2847H24.1667V22.6663Z" fill="#3F3F3F"/>
<path d="M24.1667 21.0479H22.5547V22.6663H24.1667V21.0479Z" fill="#565656"/>
<path d="M24.1667 19.427H22.5547V21.0478H24.1667V19.427Z" fill="#565656"/>
<path d="M24.1667 8.09448H22.5547V9.71533H24.1667V8.09448Z" fill="#E22405"/>
<path d="M24.1667 4.85767H22.5547V6.47608H24.1667V4.85767Z" fill="#FFDE00"/>
<path d="M24.1667 3.23926H22.5547V4.85767H24.1667V3.23926Z" fill="#FFB000"/>
<path d="M24.1667 1.61841H22.5547V3.23925H24.1667V1.61841Z" fill="#E22405"/>
<path d="M24.1667 0H22.5547V1.61841H24.1667V0Z" fill="#FFDE00"/>
<path d="M22.5547 25.9055H20.9428V27.5239H22.5547V25.9055Z" fill="#3F3F3F"/>
<path d="M22.5547 24.2847H20.9428V25.9055H22.5547V24.2847Z" fill="#3F3F3F"/>
<path d="M22.5547 22.6663H20.9428V24.2847H22.5547V22.6663Z" fill="#565656"/>
<path d="M22.5547 21.0479H20.9428V22.6663H22.5547V21.0479Z" fill="#565656"/>
<path d="M22.5547 19.427H20.9428V21.0478H22.5547V19.427Z" fill="#565656"/>
<path d="M22.5547 17.8086H20.9428V19.427H22.5547V17.8086Z" fill="#565656"/>
<path d="M22.5547 16.1902H20.9428V17.8086H22.5547V16.1902Z" fill="#565656"/>
<path d="M22.5547 4.85767H20.9428V6.47608H22.5547V4.85767Z" fill="#FFB000"/>
<path d="M22.5547 3.23926H20.9428V4.85767H22.5547V3.23926Z" fill="#E22405"/>
<path d="M22.5547 1.61841H20.9428V3.23925H22.5547V1.61841Z" fill="#FFB000"/>
<path d="M20.9429 27.5239H19.3333V29.1423H20.9429V27.5239Z" fill="#3F3F3F"/>
<path d="M20.9429 25.9055H19.3333V27.5239H20.9429V25.9055Z" fill="#565656"/>
<path d="M20.9429 24.2847H19.3333V25.9055H20.9429V24.2847Z" fill="#565656"/>
<path d="M20.9429 22.6663H19.3333V24.2847H20.9429V22.6663Z" fill="#565656"/>
<path d="M20.9429 21.0479H19.3333V22.6663H20.9429V21.0479Z" fill="#565656"/>
<path d="M20.9429 19.427H19.3333V21.0478H20.9429V19.427Z" fill="#565656"/>
<path d="M20.9429 17.8086H19.3333V19.427H20.9429V17.8086Z" fill="#565656"/>
<path d="M20.9429 16.1902H19.3333V17.8086H20.9429V16.1902Z" fill="#565656"/>
<path d="M20.9429 14.5718H19.3333V16.1902H20.9429V14.5718Z" fill="#565656"/>
<path d="M20.9429 6.47607H19.3333V8.09448H20.9429V6.47607Z" fill="#FFDE00"/>
<path d="M20.9429 3.23926H19.3333V4.85767H20.9429V3.23926Z" fill="#3F3F3F"/>
<path d="M19.3333 29.1423H17.7214V30.7607H19.3333V29.1423Z" fill="#3F3F3F"/>
<path d="M19.3333 27.5239H17.7214V29.1423H19.3333V27.5239Z" fill="#565656"/>
<path d="M19.3333 25.9055H17.7214V27.5239H19.3333V25.9055Z" fill="#565656"/>
<path d="M19.3333 24.2847H17.7214V25.9055H19.3333V24.2847Z" fill="#565656"/>
<path d="M19.3333 22.6663H17.7214V24.2847H19.3333V22.6663Z" fill="#565656"/>
<path d="M19.3333 21.0479H17.7214V22.6663H19.3333V21.0479Z" fill="#565656"/>
<path d="M19.3333 19.427H17.7214V21.0478H19.3333V19.427Z" fill="#565656"/>
<path d="M19.3333 17.8086H17.7214V19.427H19.3333V17.8086Z" fill="#565656"/>
<path d="M19.3333 16.1902H17.7214V17.8086H19.3333V16.1902Z" fill="#565656"/>
<path d="M19.3333 14.5718H17.7214V16.1902H19.3333V14.5718Z" fill="#565656"/>
<path d="M19.3333 12.9509H17.7214V14.5718H19.3333V12.9509Z" fill="#565656"/>
<path d="M19.3333 1.61841H17.7214V3.23925H19.3333V1.61841Z" fill="#3F3F3F"/>
<path d="M17.7226 30.7607H16.1107V32.3816H17.7226V30.7607Z" fill="#3F3F3F"/>
<path d="M17.7226 29.1423H16.1107V30.7607H17.7226V29.1423Z" fill="#565656"/>
<path d="M17.7226 27.5239H16.1107V29.1423H17.7226V27.5239Z" fill="#565656"/>
<path d="M17.7226 25.9055H16.1107V27.5239H17.7226V25.9055Z" fill="#565656"/>
<path d="M17.7226 24.2847H16.1107V25.9055H17.7226V24.2847Z" fill="#565656"/>
<path d="M17.7226 22.6663H16.1107V24.2847H17.7226V22.6663Z" fill="#565656"/>
<path d="M17.7226 21.0479H16.1107V22.6663H17.7226V21.0479Z" fill="#565656"/>
<path d="M17.7226 19.427H16.1107V21.0478H17.7226V19.427Z" fill="#565656"/>
<path d="M17.7226 17.8086H16.1107V19.427H17.7226V17.8086Z" fill="#565656"/>
<path d="M17.7226 16.1902H16.1107V17.8086H17.7226V16.1902Z" fill="#565656"/>
<path d="M17.7226 14.5718H16.1107V16.1902H17.7226V14.5718Z" fill="#565656"/>
<path d="M17.7226 12.9509H16.1107V14.5718H17.7226V12.9509Z" fill="#565656"/>
<path d="M17.7226 11.3337H16.1107V12.9521H17.7226V11.3337Z" fill="#565656"/>
<path d="M17.7226 0H16.1107V1.61841H17.7226V0Z" fill="#3F3F3F"/>
<path d="M16.1107 30.7607H14.4988V32.3816H16.1107V30.7607Z" fill="#3F3F3F"/>
<path d="M16.1107 29.1423H14.4988V30.7607H16.1107V29.1423Z" fill="#3F3F3F"/>
<path d="M16.1107 27.5239H14.4988V29.1423H16.1107V27.5239Z" fill="#565656"/>
<path d="M16.1107 25.9055H14.4988V27.5239H16.1107V25.9055Z" fill="#565656"/>
<path d="M16.1107 24.2847H14.4988V25.9055H16.1107V24.2847Z" fill="#565656"/>
<path d="M16.1107 22.6663H14.4988V24.2847H16.1107V22.6663Z" fill="#565656"/>
<path d="M16.1107 21.0479H14.4988V22.6663H16.1107V21.0479Z" fill="#565656"/>
<path d="M16.1107 19.427H14.4988V21.0478H16.1107V19.427Z" fill="#565656"/>
<path d="M16.1107 17.8086H14.4988V19.427H16.1107V17.8086Z" fill="#565656"/>
<path d="M16.1107 16.1902H14.4988V17.8086H16.1107V16.1902Z" fill="#565656"/>
<path d="M16.1107 14.5718H14.4988V16.1902H16.1107V14.5718Z" fill="#565656"/>
<path d="M16.1107 12.9509H14.4988V14.5718H16.1107V12.9509Z" fill="#565656"/>
<path d="M16.1107 11.3337H14.4988V12.9521H16.1107V11.3337Z" fill="#565656"/>
<path d="M16.1107 0H14.4988V1.61841H16.1107V0Z" fill="#3F3F3F"/>
<path d="M14.4988 32.3816H12.8869V34H14.4988V32.3816Z" fill="#3F3F3F"/>
<path d="M14.4988 30.7607H12.8869V32.3816H14.4988V30.7607Z" fill="#565656"/>
<path d="M14.4988 29.1423H12.8869V30.7607H14.4988V29.1423Z" fill="#3F3F3F"/>
<path d="M14.4988 27.5239H12.8869V29.1423H14.4988V27.5239Z" fill="#565656"/>
<path d="M14.4988 25.9055H12.8869V27.5239H14.4988V25.9055Z" fill="#565656"/>
<path d="M14.4988 24.2847H12.8869V25.9055H14.4988V24.2847Z" fill="#565656"/>
<path d="M14.4988 22.6663H12.8869V24.2847H14.4988V22.6663Z" fill="#565656"/>
<path d="M14.4988 21.0479H12.8869V22.6663H14.4988V21.0479Z" fill="#565656"/>
<path d="M14.4988 19.427H12.8869V21.0478H14.4988V19.427Z" fill="#565656"/>
<path d="M14.4988 17.8086H12.8869V19.427H14.4988V17.8086Z" fill="#565656"/>
<path d="M14.4988 16.1902H12.8869V17.8086H14.4988V16.1902Z" fill="#565656"/>
<path d="M14.4988 14.5718H12.8869V16.1902H14.4988V14.5718Z" fill="#565656"/>
<path d="M14.4988 12.9509H12.8869V14.5718H14.4988V12.9509Z" fill="#565656"/>
<path d="M14.4988 11.3337H12.8869V12.9521H14.4988V11.3337Z" fill="#565656"/>
<path d="M14.4988 9.71533H12.8869V11.3337H14.4988V9.71533Z" fill="#565656"/>
<path d="M14.4988 8.09448H12.8869V9.71533H14.4988V8.09448Z" fill="#565656"/>
<path d="M14.4988 6.47607H12.8869V8.09448H14.4988V6.47607Z" fill="#565656"/>
<path d="M14.4988 1.61841H12.8869V3.23925H14.4988V1.61841Z" fill="#3F3F3F"/>
<path d="M12.8881 32.3816H11.2786V34H12.8881V32.3816Z" fill="#3F3F3F"/>
<path d="M12.8881 30.7607H11.2786V32.3816H12.8881V30.7607Z" fill="#3F3F3F"/>
<path d="M12.8881 29.1423H11.2786V30.7607H12.8881V29.1423Z" fill="#565656"/>
<path d="M12.8881 27.5239H11.2786V29.1423H12.8881V27.5239Z" fill="#565656"/>
<path d="M12.8881 25.9055H11.2786V27.5239H12.8881V25.9055Z" fill="#565656"/>
<path d="M12.8881 24.2847H11.2786V25.9055H12.8881V24.2847Z" fill="#565656"/>
<path d="M12.8881 22.6663H11.2786V24.2847H12.8881V22.6663Z" fill="#565656"/>
<path d="M12.8881 21.0479H11.2786V22.6663H12.8881V21.0479Z" fill="#565656"/>
<path d="M12.8881 19.427H11.2786V21.0478H12.8881V19.427Z" fill="#565656"/>
<path d="M12.8881 17.8086H11.2786V19.427H12.8881V17.8086Z" fill="#565656"/>
<path d="M12.8881 16.1902H11.2786V17.8086H12.8881V16.1902Z" fill="#565656"/>
<path d="M12.8881 14.5718H11.2786V16.1902H12.8881V14.5718Z" fill="#565656"/>
<path d="M12.8881 12.9509H11.2786V14.5718H12.8881V12.9509Z" fill="#565656"/>
<path d="M12.8881 11.3337H11.2786V12.9521H12.8881V11.3337Z" fill="#565656"/>
<path d="M12.8881 9.71533H11.2786V11.3337H12.8881V9.71533Z" fill="#565656"/>
<path d="M12.8881 8.09448H11.2786V9.71533H12.8881V8.09448Z" fill="#565656"/>
<path d="M12.8881 6.47607H11.2786V8.09448H12.8881V6.47607Z" fill="#565656"/>
<path d="M12.8881 4.85767H11.2786V6.47608H12.8881V4.85767Z" fill="#3F3F3F"/>
<path d="M12.8881 3.23926H11.2786V4.85767H12.8881V3.23926Z" fill="#3F3F3F"/>
<path d="M11.2786 32.3816H9.66666V34H11.2786V32.3816Z" fill="#3F3F3F"/>
<path d="M11.2786 30.7607H9.66666V32.3816H11.2786V30.7607Z" fill="#565656"/>
<path d="M11.2786 29.1423H9.66666V30.7607H11.2786V29.1423Z" fill="#3F3F3F"/>
<path d="M11.2786 27.5239H9.66666V29.1423H11.2786V27.5239Z" fill="#565656"/>
<path d="M11.2786 25.9055H9.66666V27.5239H11.2786V25.9055Z" fill="#565656"/>
<path d="M11.2786 24.2847H9.66666V25.9055H11.2786V24.2847Z" fill="#565656"/>
<path d="M11.2786 22.6663H9.66666V24.2847H11.2786V22.6663Z" fill="#565656"/>
<path d="M11.2786 21.0479H9.66666V22.6663H11.2786V21.0479Z" fill="#565656"/>
<path d="M11.2786 19.427H9.66666V21.0478H11.2786V19.427Z" fill="#565656"/>
<path d="M11.2786 17.8086H9.66666V19.427H11.2786V17.8086Z" fill="#565656"/>
<path d="M11.2786 16.1902H9.66666V17.8086H11.2786V16.1902Z" fill="#565656"/>
<path d="M11.2786 14.5718H9.66666V16.1902H11.2786V14.5718Z" fill="#565656"/>
<path d="M11.2786 12.9509H9.66666V14.5718H11.2786V12.9509Z" fill="#565656"/>
<path d="M11.2786 11.3337H9.66666V12.9521H11.2786V11.3337Z" fill="#565656"/>
<path d="M11.2786 9.71533H9.66666V11.3337H11.2786V9.71533Z" fill="#565656"/>
<path d="M11.2786 8.09448H9.66666V9.71533H11.2786V8.09448Z" fill="#565656"/>
<path d="M11.2786 6.47607H9.66666V8.09448H11.2786V6.47607Z" fill="#565656"/>
<path d="M9.66666 30.7607H8.05475V32.3816H9.66666V30.7607Z" fill="#3F3F3F"/>
<path d="M9.66666 29.1423H8.05475V30.7607H9.66666V29.1423Z" fill="#565656"/>
<path d="M9.66666 27.5239H8.05475V29.1423H9.66666V27.5239Z" fill="#565656"/>
<path d="M9.66666 25.9055H8.05475V27.5239H9.66666V25.9055Z" fill="#565656"/>
<path d="M9.66666 24.2847H8.05475V25.9055H9.66666V24.2847Z" fill="#565656"/>
<path d="M9.66666 22.6663H8.05475V24.2847H9.66666V22.6663Z" fill="#565656"/>
<path d="M9.66666 21.0479H8.05475V22.6663H9.66666V21.0479Z" fill="#565656"/>
<path d="M9.66666 19.427H8.05475V21.0478H9.66666V19.427Z" fill="#565656"/>
<path d="M9.66666 17.8086H8.05475V19.427H9.66666V17.8086Z" fill="#565656"/>
<path d="M9.66666 16.1902H8.05475V17.8086H9.66666V16.1902Z" fill="#565656"/>
<path d="M9.66666 14.5718H8.05475V16.1902H9.66666V14.5718Z" fill="#565656"/>
<path d="M9.66666 12.9509H8.05475V14.5718H9.66666V12.9509Z" fill="white"/>
<path d="M9.66666 11.3337H8.05475V12.9521H9.66666V11.3337Z" fill="#565656"/>
<path d="M8.05597 30.7607H6.44406V32.3816H8.05597V30.7607Z" fill="#3F3F3F"/>
<path d="M8.05597 29.1423H6.44406V30.7607H8.05597V29.1423Z" fill="#3F3F3F"/>
<path d="M8.05597 27.5239H6.44406V29.1423H8.05597V27.5239Z" fill="#565656"/>
<path d="M8.05597 25.9055H6.44406V27.5239H8.05597V25.9055Z" fill="#565656"/>
<path d="M8.05597 24.2847H6.44406V25.9055H8.05597V24.2847Z" fill="#565656"/>
<path d="M8.05597 22.6663H6.44406V24.2847H8.05597V22.6663Z" fill="#565656"/>
<path d="M8.05597 21.0479H6.44406V22.6663H8.05597V21.0479Z" fill="#565656"/>
<path d="M8.05597 19.427H6.44406V21.0478H8.05597V19.427Z" fill="#565656"/>
<path d="M8.05597 17.8086H6.44406V19.427H8.05597V17.8086Z" fill="#565656"/>
<path d="M8.05597 16.1902H6.44406V17.8086H8.05597V16.1902Z" fill="#565656"/>
<path d="M8.05597 14.5718H6.44406V16.1902H8.05597V14.5718Z" fill="white"/>
<path d="M8.05597 12.9509H6.44406V14.5718H8.05597V12.9509Z" fill="#565656"/>
<path d="M8.05597 11.3337H6.44406V12.9521H8.05597V11.3337Z" fill="#565656"/>
<path d="M6.44406 29.1423H4.83215V30.7607H6.44406V29.1423Z" fill="#3F3F3F"/>
<path d="M6.44406 27.5239H4.83215V29.1423H6.44406V27.5239Z" fill="#3F3F3F"/>
<path d="M6.44406 25.9055H4.83215V27.5239H6.44406V25.9055Z" fill="#565656"/>
<path d="M6.44406 24.2847H4.83215V25.9055H6.44406V24.2847Z" fill="#565656"/>
<path d="M6.44406 22.6663H4.83215V24.2847H6.44406V22.6663Z" fill="#565656"/>
<path d="M6.44406 21.0479H4.83215V22.6663H6.44406V21.0479Z" fill="#565656"/>
<path d="M6.44406 19.427H4.83215V21.0478H6.44406V19.427Z" fill="#565656"/>
<path d="M6.44406 17.8086H4.83215V19.427H6.44406V17.8086Z" fill="#565656"/>
<path d="M6.44406 16.1902H4.83215V17.8086H6.44406V16.1902Z" fill="white"/>
<path d="M6.44406 14.5718H4.83215V16.1902H6.44406V14.5718Z" fill="#565656"/>
<path d="M6.44406 12.9509H4.83215V14.5718H6.44406V12.9509Z" fill="#565656"/>
<path d="M4.83215 27.5239H3.22025V29.1423H4.83215V27.5239Z" fill="#3F3F3F"/>
<path d="M4.83215 25.9055H3.22025V27.5239H4.83215V25.9055Z" fill="#565656"/>
<path d="M4.83215 24.2847H3.22025V25.9055H4.83215V24.2847Z" fill="#3F3F3F"/>
<path d="M4.83215 22.6663H3.22025V24.2847H4.83215V22.6663Z" fill="#565656"/>
<path d="M4.83215 21.0479H3.22025V22.6663H4.83215V21.0479Z" fill="#565656"/>
<path d="M4.83215 19.427H3.22025V21.0478H4.83215V19.427Z" fill="#565656"/>
<path d="M4.83215 17.8086H3.22025V19.427H4.83215V17.8086Z" fill="#565656"/>
<path d="M4.83215 16.1902H3.22025V17.8086H4.83215V16.1902Z" fill="#565656"/>
<path d="M4.83215 14.5718H3.22025V16.1902H4.83215V14.5718Z" fill="#565656"/>
<path d="M3.22143 25.9055H1.61191V27.5239H3.22143V25.9055Z" fill="#3F3F3F"/>
<path d="M3.22143 24.2847H1.61191V25.9055H3.22143V24.2847Z" fill="#3F3F3F"/>
<path d="M3.22143 22.6663H1.61191V24.2847H3.22143V22.6663Z" fill="#565656"/>
<path d="M3.22143 21.0479H1.61191V22.6663H3.22143V21.0479Z" fill="#565656"/>
<path d="M3.22143 19.427H1.61191V21.0478H3.22143V19.427Z" fill="#565656"/>
<path d="M3.22143 17.8086H1.61191V19.427H3.22143V17.8086Z" fill="#565656"/>
<path d="M3.22143 16.1902H1.61191V17.8086H3.22143V16.1902Z" fill="#565656"/>
<path d="M1.61191 22.6663H0V24.2847H1.61191V22.6663Z" fill="#3F3F3F"/>
<path d="M1.61191 21.0479H0V22.6663H1.61191V21.0479Z" fill="#3F3F3F"/>
<path d="M1.61191 19.427H0V21.0478H1.61191V19.427Z" fill="#3F3F3F"/>
</g>
<defs>
<clipPath id="clip0_607_1780">
<rect width="29" height="34" fill="white"/>
</clipPath>
</defs>
</svg>
