<svg width="26" height="20" viewBox="0 0 26 20" fill="none" xmlns="http://www.w3.org/2000/svg">
<g clip-path="url(#clip0_607_1583)">
<path d="M26 15.386H24.3742V16.924H26V15.386Z" fill="#EF0F30"/>
<path d="M26 13.8459H24.3742V15.386H26V13.8459Z" fill="#EF0F30"/>
<path d="M26 12.3081H24.3742V13.8461H26V12.3081Z" fill="#EF0F30"/>
<path d="M26 10.77H24.3742V12.308H26V10.77Z" fill="#EF0F30"/>
<path d="M26 9.22998H24.3742V10.7701H26V9.22998Z" fill="#EF0F30"/>
<path d="M26 7.69189H24.3742V9.22987H26V7.69189Z" fill="#EF0F30"/>
<path d="M26 6.15405H24.3742V7.69203H26V6.15405Z" fill="#EF0F30"/>
<path d="M26 4.61597H24.3742V6.15394H26V4.61597Z" fill="#EF0F30"/>
<path d="M26 3.07593H24.3742V4.61601H26V3.07593Z" fill="#EF0F30"/>
<path d="M24.3753 16.9241H22.7495V18.462H24.3753V16.9241Z" fill="#EF0F30"/>
<path d="M24.3753 15.386H22.7495V16.924H24.3753V15.386Z" fill="#EF0F30"/>
<path d="M24.3753 13.8459H22.7495V15.386H24.3753V13.8459Z" fill="white"/>
<path d="M24.3753 12.3081H22.7495V13.8461H24.3753V12.3081Z" fill="white"/>
<path d="M24.3753 10.77H22.7495V12.308H24.3753V10.77Z" fill="white"/>
<path d="M24.3753 9.22998H22.7495V10.7701H24.3753V9.22998Z" fill="white"/>
<path d="M24.3753 7.69189H22.7495V9.22987H24.3753V7.69189Z" fill="white"/>
<path d="M24.3753 6.15405H22.7495V7.69203H24.3753V6.15405Z" fill="white"/>
<path d="M24.3753 4.61597H22.7495V6.15394H24.3753V4.61597Z" fill="white"/>
<path d="M24.3753 3.07593H22.7495V4.61601H24.3753V3.07593Z" fill="#EF0F30"/>
<path d="M24.3753 1.53809H22.7495V3.07606H24.3753V1.53809Z" fill="#EF0F30"/>
<path d="M22.7495 18.4619H21.1236V19.9999H22.7495V18.4619Z" fill="#EF0F30"/>
<path d="M22.7495 16.9241H21.1236V18.462H22.7495V16.9241Z" fill="white"/>
<path d="M22.7495 15.386H21.1236V16.924H22.7495V15.386Z" fill="#EF0F30"/>
<path d="M22.7495 13.8459H21.1236V15.386H22.7495V13.8459Z" fill="#EF0F30"/>
<path d="M22.7495 12.3081H21.1236V13.8461H22.7495V12.3081Z" fill="#EF0F30"/>
<path d="M22.7495 10.77H21.1236V12.308H22.7495V10.77Z" fill="#EF0F30"/>
<path d="M22.7495 9.22998H21.1236V10.7701H22.7495V9.22998Z" fill="white"/>
<path d="M22.7495 7.69189H21.1236V9.22987H22.7495V7.69189Z" fill="#EF0F30"/>
<path d="M22.7495 6.15405H21.1236V7.69203H22.7495V6.15405Z" fill="#EF0F30"/>
<path d="M22.7495 4.61597H21.1236V6.15394H22.7495V4.61597Z" fill="#EF0F30"/>
<path d="M22.7495 3.07593H21.1236V4.61601H22.7495V3.07593Z" fill="#EF0F30"/>
<path d="M22.7495 1.53809H21.1236V3.07606H22.7495V1.53809Z" fill="white"/>
<path d="M22.7495 0H21.1236V1.53797H22.7495V0Z" fill="#EF0F30"/>
<path d="M21.1247 18.4619H19.4989V19.9999H21.1247V18.4619Z" fill="#EF0F30"/>
<path d="M21.1247 16.9241H19.4989V18.462H21.1247V16.9241Z" fill="white"/>
<path d="M21.1247 15.386H19.4989V16.924H21.1247V15.386Z" fill="#EF0F30"/>
<path d="M21.1247 13.8459H19.4989V15.386H21.1247V13.8459Z" fill="#EF0F30"/>
<path d="M21.1247 12.3081H19.4989V13.8461H21.1247V12.3081Z" fill="#EF0F30"/>
<path d="M21.1247 10.77H19.4989V12.308H21.1247V10.77Z" fill="#EF0F30"/>
<path d="M21.1247 9.22998H19.4989V10.7701H21.1247V9.22998Z" fill="#EF0F30"/>
<path d="M21.1247 7.69189H19.4989V9.22987H21.1247V7.69189Z" fill="white"/>
<path d="M21.1247 6.15405H19.4989V7.69203H21.1247V6.15405Z" fill="#EF0F30"/>
<path d="M21.1247 4.61597H19.4989V6.15394H21.1247V4.61597Z" fill="#EF0F30"/>
<path d="M21.1247 3.07593H19.4989V4.61601H21.1247V3.07593Z" fill="#EF0F30"/>
<path d="M21.1247 1.53809H19.4989V3.07606H21.1247V1.53809Z" fill="white"/>
<path d="M21.1247 0H19.4989V1.53797H21.1247V0Z" fill="#EF0F30"/>
<path d="M19.4989 18.4619H17.8753V19.9999H19.4989V18.4619Z" fill="#EF0F30"/>
<path d="M19.4989 16.9241H17.8753V18.462H19.4989V16.9241Z" fill="white"/>
<path d="M19.4989 15.386H17.8753V16.924H19.4989V15.386Z" fill="#EF0F30"/>
<path d="M19.4989 13.8459H17.8753V15.386H19.4989V13.8459Z" fill="white"/>
<path d="M19.4989 12.3081H17.8753V13.8461H19.4989V12.3081Z" fill="white"/>
<path d="M19.4989 10.77H17.8753V12.308H19.4989V10.77Z" fill="white"/>
<path d="M19.4989 9.22998H17.8753V10.7701H19.4989V9.22998Z" fill="white"/>
<path d="M19.4989 7.69189H17.8753V9.22987H19.4989V7.69189Z" fill="white"/>
<path d="M19.4989 6.15405H17.8753V7.69203H19.4989V6.15405Z" fill="white"/>
<path d="M19.4989 4.61597H17.8753V6.15394H19.4989V4.61597Z" fill="white"/>
<path d="M19.4989 3.07593H17.8753V4.61601H19.4989V3.07593Z" fill="#EF0F30"/>
<path d="M19.4989 1.53809H17.8753V3.07606H19.4989V1.53809Z" fill="white"/>
<path d="M19.4989 0H17.8753V1.53797H19.4989V0Z" fill="#EF0F30"/>
<path d="M17.8753 18.4619H16.2495V19.9999H17.8753V18.4619Z" fill="#EF0F30"/>
<path d="M17.8753 16.9241H16.2495V18.462H17.8753V16.9241Z" fill="white"/>
<path d="M17.8753 15.386H16.2495V16.924H17.8753V15.386Z" fill="#EF0F30"/>
<path d="M17.8753 13.8459H16.2495V15.386H17.8753V13.8459Z" fill="#EF0F30"/>
<path d="M17.8753 12.3081H16.2495V13.8461H17.8753V12.3081Z" fill="#EF0F30"/>
<path d="M17.8753 10.77H16.2495V12.308H17.8753V10.77Z" fill="#EF0F30"/>
<path d="M17.8753 9.22998H16.2495V10.7701H17.8753V9.22998Z" fill="#EF0F30"/>
<path d="M17.8753 7.69189H16.2495V9.22987H17.8753V7.69189Z" fill="#EF0F30"/>
<path d="M17.8753 6.15405H16.2495V7.69203H17.8753V6.15405Z" fill="#EF0F30"/>
<path d="M17.8753 4.61597H16.2495V6.15394H17.8753V4.61597Z" fill="#EF0F30"/>
<path d="M17.8753 3.07593H16.2495V4.61601H17.8753V3.07593Z" fill="#EF0F30"/>
<path d="M17.8753 1.53809H16.2495V3.07606H17.8753V1.53809Z" fill="white"/>
<path d="M17.8753 0H16.2495V1.53797H17.8753V0Z" fill="#EF0F30"/>
<path d="M16.2506 18.4619H14.6247V19.9999H16.2506V18.4619Z" fill="#EF0F30"/>
<path d="M16.2506 16.9241H14.6247V18.462H16.2506V16.9241Z" fill="white"/>
<path d="M16.2506 15.386H14.6247V16.924H16.2506V15.386Z" fill="#EF0F30"/>
<path d="M16.2506 13.8459H14.6247V15.386H16.2506V13.8459Z" fill="white"/>
<path d="M16.2506 12.3081H14.6247V13.8461H16.2506V12.3081Z" fill="white"/>
<path d="M16.2506 10.77H14.6247V12.308H16.2506V10.77Z" fill="white"/>
<path d="M16.2506 9.22998H14.6247V10.7701H16.2506V9.22998Z" fill="white"/>
<path d="M16.2506 7.69189H14.6247V9.22987H16.2506V7.69189Z" fill="white"/>
<path d="M16.2506 6.15405H14.6247V7.69203H16.2506V6.15405Z" fill="white"/>
<path d="M16.2506 4.61597H14.6247V6.15394H16.2506V4.61597Z" fill="white"/>
<path d="M16.2506 3.07593H14.6247V4.61601H16.2506V3.07593Z" fill="#EF0F30"/>
<path d="M16.2506 1.53809H14.6247V3.07606H16.2506V1.53809Z" fill="white"/>
<path d="M16.2506 0H14.6247V1.53797H16.2506V0Z" fill="#EF0F30"/>
<path d="M14.6247 18.4619H12.9989V19.9999H14.6247V18.4619Z" fill="#EF0F30"/>
<path d="M14.6247 16.9241H12.9989V18.462H14.6247V16.9241Z" fill="white"/>
<path d="M14.6247 15.386H12.9989V16.924H14.6247V15.386Z" fill="#EF0F30"/>
<path d="M14.6247 13.8459H12.9989V15.386H14.6247V13.8459Z" fill="#EF0F30"/>
<path d="M14.6247 12.3081H12.9989V13.8461H14.6247V12.3081Z" fill="#EF0F30"/>
<path d="M14.6247 10.77H12.9989V12.308H14.6247V10.77Z" fill="#EF0F30"/>
<path d="M14.6247 9.22998H12.9989V10.7701H14.6247V9.22998Z" fill="#EF0F30"/>
<path d="M14.6247 7.69189H12.9989V9.22987H14.6247V7.69189Z" fill="#EF0F30"/>
<path d="M14.6247 6.15405H12.9989V7.69203H14.6247V6.15405Z" fill="#EF0F30"/>
<path d="M14.6247 4.61597H12.9989V6.15394H14.6247V4.61597Z" fill="#EF0F30"/>
<path d="M14.6247 3.07593H12.9989V4.61601H14.6247V3.07593Z" fill="#EF0F30"/>
<path d="M14.6247 1.53809H12.9989V3.07606H14.6247V1.53809Z" fill="white"/>
<path d="M14.6247 0H12.9989V1.53797H14.6247V0Z" fill="#EF0F30"/>
<path d="M12.9989 18.4619H11.3731V19.9999H12.9989V18.4619Z" fill="#EF0F30"/>
<path d="M12.9989 16.9241H11.3731V18.462H12.9989V16.9241Z" fill="white"/>
<path d="M12.9989 15.386H11.3731V16.924H12.9989V15.386Z" fill="#EF0F30"/>
<path d="M12.9989 13.8459H11.3731V15.386H12.9989V13.8459Z" fill="#EF0F30"/>
<path d="M12.9989 12.3081H11.3731V13.8461H12.9989V12.3081Z" fill="#EF0F30"/>
<path d="M12.9989 10.77H11.3731V12.308H12.9989V10.77Z" fill="#EF0F30"/>
<path d="M12.9989 9.22998H11.3731V10.7701H12.9989V9.22998Z" fill="#EF0F30"/>
<path d="M12.9989 7.69189H11.3731V9.22987H12.9989V7.69189Z" fill="white"/>
<path d="M12.9989 6.15405H11.3731V7.69203H12.9989V6.15405Z" fill="white"/>
<path d="M12.9989 4.61597H11.3731V6.15394H12.9989V4.61597Z" fill="#EF0F30"/>
<path d="M12.9989 3.07593H11.3731V4.61601H12.9989V3.07593Z" fill="#EF0F30"/>
<path d="M12.9989 1.53809H11.3731V3.07606H12.9989V1.53809Z" fill="white"/>
<path d="M12.9989 0H11.3731V1.53797H12.9989V0Z" fill="#EF0F30"/>
<path d="M11.3742 18.4619H9.75055V19.9999H11.3742V18.4619Z" fill="#EF0F30"/>
<path d="M11.3742 16.9241H9.75055V18.462H11.3742V16.9241Z" fill="white"/>
<path d="M11.3742 15.386H9.75055V16.924H11.3742V15.386Z" fill="#EF0F30"/>
<path d="M11.3742 13.8459H9.75055V15.386H11.3742V13.8459Z" fill="#EF0F30"/>
<path d="M11.3742 12.3081H9.75055V13.8461H11.3742V12.3081Z" fill="#EF0F30"/>
<path d="M11.3742 10.77H9.75055V12.308H11.3742V10.77Z" fill="#EF0F30"/>
<path d="M11.3742 9.22998H9.75055V10.7701H11.3742V9.22998Z" fill="white"/>
<path d="M11.3742 7.69189H9.75055V9.22987H11.3742V7.69189Z" fill="#EF0F30"/>
<path d="M11.3742 6.15405H9.75055V7.69203H11.3742V6.15405Z" fill="#EF0F30"/>
<path d="M11.3742 4.61597H9.75055V6.15394H11.3742V4.61597Z" fill="white"/>
<path d="M11.3742 3.07593H9.75055V4.61601H11.3742V3.07593Z" fill="#EF0F30"/>
<path d="M11.3742 1.53809H9.75055V3.07606H11.3742V1.53809Z" fill="white"/>
<path d="M11.3742 0H9.75055V1.53797H11.3742V0Z" fill="#EF0F30"/>
<path d="M9.75055 18.4619H8.12473V19.9999H9.75055V18.4619Z" fill="#EF0F30"/>
<path d="M9.75055 16.9241H8.12473V18.462H9.75055V16.9241Z" fill="white"/>
<path d="M9.75055 15.386H8.12473V16.924H9.75055V15.386Z" fill="#EF0F30"/>
<path d="M9.75055 13.8459H8.12473V15.386H9.75055V13.8459Z" fill="white"/>
<path d="M9.75055 12.3081H8.12473V13.8461H9.75055V12.3081Z" fill="white"/>
<path d="M9.75055 10.77H8.12473V12.308H9.75055V10.77Z" fill="white"/>
<path d="M9.75055 9.22998H8.12473V10.7701H9.75055V9.22998Z" fill="white"/>
<path d="M9.75055 7.69189H8.12473V9.22987H9.75055V7.69189Z" fill="white"/>
<path d="M9.75055 6.15405H8.12473V7.69203H9.75055V6.15405Z" fill="white"/>
<path d="M9.75055 4.61597H8.12473V6.15394H9.75055V4.61597Z" fill="white"/>
<path d="M9.75055 3.07593H8.12473V4.61601H9.75055V3.07593Z" fill="#EF0F30"/>
<path d="M9.75055 1.53809H8.12473V3.07606H9.75055V1.53809Z" fill="white"/>
<path d="M9.75055 0H8.12473V1.53797H9.75055V0Z" fill="#EF0F30"/>
<path d="M8.12582 18.4619H6.5V19.9999H8.12582V18.4619Z" fill="#EF0F30"/>
<path d="M8.12582 16.9241H6.5V18.462H8.12582V16.9241Z" fill="white"/>
<path d="M8.12582 15.386H6.5V16.924H8.12582V15.386Z" fill="#EF0F30"/>
<path d="M8.12582 13.8459H6.5V15.386H8.12582V13.8459Z" fill="#EF0F30"/>
<path d="M8.12582 12.3081H6.5V13.8461H8.12582V12.3081Z" fill="#EF0F30"/>
<path d="M8.12582 10.77H6.5V12.308H8.12582V10.77Z" fill="#EF0F30"/>
<path d="M8.12582 9.22998H6.5V10.7701H8.12582V9.22998Z" fill="#EF0F30"/>
<path d="M8.12582 7.69189H6.5V9.22987H8.12582V7.69189Z" fill="#EF0F30"/>
<path d="M8.12582 6.15405H6.5V7.69203H8.12582V6.15405Z" fill="#EF0F30"/>
<path d="M8.12582 4.61597H6.5V6.15394H8.12582V4.61597Z" fill="#EF0F30"/>
<path d="M8.12582 3.07593H6.5V4.61601H8.12582V3.07593Z" fill="#EF0F30"/>
<path d="M8.12582 1.53809H6.5V3.07606H8.12582V1.53809Z" fill="white"/>
<path d="M8.12582 0H6.5V1.53797H8.12582V0Z" fill="#EF0F30"/>
<path d="M6.5 18.4619H4.87418V19.9999H6.5V18.4619Z" fill="#EF0F30"/>
<path d="M6.5 16.9241H4.87418V18.462H6.5V16.9241Z" fill="white"/>
<path d="M6.5 15.386H4.87418V16.924H6.5V15.386Z" fill="#EF0F30"/>
<path d="M6.5 13.8459H4.87418V15.386H6.5V13.8459Z" fill="#EF0F30"/>
<path d="M6.5 12.3081H4.87418V13.8461H6.5V12.3081Z" fill="white"/>
<path d="M6.5 10.77H4.87418V12.308H6.5V10.77Z" fill="white"/>
<path d="M6.5 9.22998H4.87418V10.7701H6.5V9.22998Z" fill="#EF0F30"/>
<path d="M6.5 7.69189H4.87418V9.22987H6.5V7.69189Z" fill="#EF0F30"/>
<path d="M6.5 6.15405H4.87418V7.69203H6.5V6.15405Z" fill="white"/>
<path d="M6.5 4.61597H4.87418V6.15394H6.5V4.61597Z" fill="#EF0F30"/>
<path d="M6.5 3.07593H4.87418V4.61601H6.5V3.07593Z" fill="#EF0F30"/>
<path d="M6.5 1.53809H4.87418V3.07606H6.5V1.53809Z" fill="white"/>
<path d="M6.5 0H4.87418V1.53797H6.5V0Z" fill="#EF0F30"/>
<path d="M4.87418 18.4619H3.24835V19.9999H4.87418V18.4619Z" fill="#EF0F30"/>
<path d="M4.87418 16.9241H3.24835V18.462H4.87418V16.9241Z" fill="white"/>
<path d="M4.87418 15.386H3.24835V16.924H4.87418V15.386Z" fill="#EF0F30"/>
<path d="M4.87418 13.8459H3.24835V15.386H4.87418V13.8459Z" fill="white"/>
<path d="M4.87418 12.3081H3.24835V13.8461H4.87418V12.3081Z" fill="#EF0F30"/>
<path d="M4.87418 10.77H3.24835V12.308H4.87418V10.77Z" fill="#EF0F30"/>
<path d="M4.87418 9.22998H3.24835V10.7701H4.87418V9.22998Z" fill="white"/>
<path d="M4.87418 7.69189H3.24835V9.22987H4.87418V7.69189Z" fill="#EF0F30"/>
<path d="M4.87418 6.15405H3.24835V7.69203H4.87418V6.15405Z" fill="#EF0F30"/>
<path d="M4.87418 4.61597H3.24835V6.15394H4.87418V4.61597Z" fill="white"/>
<path d="M4.87418 3.07593H3.24835V4.61601H4.87418V3.07593Z" fill="#EF0F30"/>
<path d="M4.87418 1.53809H3.24835V3.07606H4.87418V1.53809Z" fill="white"/>
<path d="M4.87418 0H3.24835V1.53797H4.87418V0Z" fill="#EF0F30"/>
<path d="M3.24945 16.9241H1.62363V18.462H3.24945V16.9241Z" fill="#EF0F30"/>
<path d="M3.24945 15.386H1.62363V16.924H3.24945V15.386Z" fill="#EF0F30"/>
<path d="M3.24945 13.8459H1.62363V15.386H3.24945V13.8459Z" fill="#EF0F30"/>
<path d="M3.24945 12.3081H1.62363V13.8461H3.24945V12.3081Z" fill="white"/>
<path d="M3.24945 10.77H1.62363V12.308H3.24945V10.77Z" fill="#EF0F30"/>
<path d="M3.24945 9.22998H1.62363V10.7701H3.24945V9.22998Z" fill="#EF0F30"/>
<path d="M3.24945 7.69189H1.62363V9.22987H3.24945V7.69189Z" fill="white"/>
<path d="M3.24945 6.15405H1.62363V7.69203H3.24945V6.15405Z" fill="white"/>
<path d="M3.24945 4.61597H1.62363V6.15394H3.24945V4.61597Z" fill="#EF0F30"/>
<path d="M3.24945 3.07593H1.62363V4.61601H3.24945V3.07593Z" fill="#EF0F30"/>
<path d="M3.24945 1.53809H1.62363V3.07606H3.24945V1.53809Z" fill="#EF0F30"/>
<path d="M1.62363 15.386H0V16.924H1.62363V15.386Z" fill="#EF0F30"/>
<path d="M1.62363 13.8459H0V15.386H1.62363V13.8459Z" fill="#EF0F30"/>
<path d="M1.62363 12.3081H0V13.8461H1.62363V12.3081Z" fill="#EF0F30"/>
<path d="M1.62363 10.77H0V12.308H1.62363V10.77Z" fill="#EF0F30"/>
<path d="M1.62363 9.22998H0V10.7701H1.62363V9.22998Z" fill="#EF0F30"/>
<path d="M1.62363 7.69189H0V9.22987H1.62363V7.69189Z" fill="#EF0F30"/>
<path d="M1.62363 6.15405H0V7.69203H1.62363V6.15405Z" fill="#EF0F30"/>
<path d="M1.62363 4.61597H0V6.15394H1.62363V4.61597Z" fill="#EF0F30"/>
<path d="M1.62363 3.07593H0V4.61601H1.62363V3.07593Z" fill="#EF0F30"/>
</g>
<defs>
<clipPath id="clip0_607_1583">
<rect width="26" height="20" fill="white"/>
</clipPath>
</defs>
</svg>
